<mxfile host="app.diagrams.net" agent="Mozilla/5.0 (Windows NT 10.0; Win64; x64) AppleWebKit/537.36 (KHTML, like Gecko) Chrome/128.0.0.0 Safari/537.36 OPR/114.0.0.0" version="24.7.17">
  <diagram name="Page-1" id="3EXEuKDljUQzysCk_rgQ">
    <mxGraphModel dx="1393" dy="796" grid="1" gridSize="10" guides="1" tooltips="1" connect="1" arrows="1" fold="1" page="1" pageScale="1" pageWidth="850" pageHeight="1100" math="0" shadow="0">
      <root>
        <mxCell id="0" />
        <mxCell id="1" parent="0" />
        <mxCell id="Lbe9cYabZGH-bOl8ioFZ-1" value="User&lt;div&gt;&lt;br&gt;&lt;/div&gt;" style="shape=umlActor;verticalLabelPosition=bottom;verticalAlign=top;html=1;outlineConnect=0;" vertex="1" parent="1">
          <mxGeometry x="140" y="282" width="30" height="60" as="geometry" />
        </mxCell>
        <mxCell id="Lbe9cYabZGH-bOl8ioFZ-3" value="" style="rounded=0;whiteSpace=wrap;html=1;" vertex="1" parent="1">
          <mxGeometry x="315" y="50" width="390" height="420" as="geometry" />
        </mxCell>
        <mxCell id="Lbe9cYabZGH-bOl8ioFZ-4" value="Search" style="ellipse;whiteSpace=wrap;html=1;" vertex="1" parent="1">
          <mxGeometry x="340" y="80" width="80" height="30" as="geometry" />
        </mxCell>
        <mxCell id="Lbe9cYabZGH-bOl8ioFZ-5" value="Favorite" style="ellipse;whiteSpace=wrap;html=1;" vertex="1" parent="1">
          <mxGeometry x="340" y="180" width="80" height="30" as="geometry" />
        </mxCell>
        <mxCell id="Lbe9cYabZGH-bOl8ioFZ-6" value="comment/rate" style="ellipse;whiteSpace=wrap;html=1;" vertex="1" parent="1">
          <mxGeometry x="340" y="230" width="80" height="30" as="geometry" />
        </mxCell>
        <mxCell id="Lbe9cYabZGH-bOl8ioFZ-7" value="create profile" style="ellipse;whiteSpace=wrap;html=1;" vertex="1" parent="1">
          <mxGeometry x="340" y="280" width="80" height="30" as="geometry" />
        </mxCell>
        <mxCell id="Lbe9cYabZGH-bOl8ioFZ-8" value="access profile" style="ellipse;whiteSpace=wrap;html=1;" vertex="1" parent="1">
          <mxGeometry x="340" y="330" width="80" height="30" as="geometry" />
        </mxCell>
        <mxCell id="Lbe9cYabZGH-bOl8ioFZ-9" value="view recipe" style="ellipse;whiteSpace=wrap;html=1;" vertex="1" parent="1">
          <mxGeometry x="340" y="130" width="80" height="30" as="geometry" />
        </mxCell>
        <mxCell id="Lbe9cYabZGH-bOl8ioFZ-10" value="Create recipe" style="ellipse;whiteSpace=wrap;html=1;" vertex="1" parent="1">
          <mxGeometry x="340" y="380" width="80" height="30" as="geometry" />
        </mxCell>
        <mxCell id="Lbe9cYabZGH-bOl8ioFZ-11" value="add picture" style="ellipse;whiteSpace=wrap;html=1;" vertex="1" parent="1">
          <mxGeometry x="530" y="340" width="80" height="30" as="geometry" />
        </mxCell>
        <mxCell id="Lbe9cYabZGH-bOl8ioFZ-12" value="add ingredients" style="ellipse;whiteSpace=wrap;html=1;" vertex="1" parent="1">
          <mxGeometry x="530" y="380" width="80" height="30" as="geometry" />
        </mxCell>
        <mxCell id="Lbe9cYabZGH-bOl8ioFZ-13" value="add directions" style="ellipse;whiteSpace=wrap;html=1;" vertex="1" parent="1">
          <mxGeometry x="530" y="420" width="80" height="30" as="geometry" />
        </mxCell>
        <mxCell id="Lbe9cYabZGH-bOl8ioFZ-14" value="" style="endArrow=classic;html=1;rounded=0;entryX=0;entryY=0.5;entryDx=0;entryDy=0;exitX=1;exitY=0.3333333333333333;exitDx=0;exitDy=0;exitPerimeter=0;" edge="1" parent="1" source="Lbe9cYabZGH-bOl8ioFZ-1" target="Lbe9cYabZGH-bOl8ioFZ-4">
          <mxGeometry width="50" height="50" relative="1" as="geometry">
            <mxPoint x="400" y="430" as="sourcePoint" />
            <mxPoint x="450" y="380" as="targetPoint" />
          </mxGeometry>
        </mxCell>
        <mxCell id="Lbe9cYabZGH-bOl8ioFZ-15" value="" style="endArrow=classic;html=1;rounded=0;entryX=0;entryY=0.5;entryDx=0;entryDy=0;exitX=1;exitY=0.3333333333333333;exitDx=0;exitDy=0;exitPerimeter=0;" edge="1" parent="1" source="Lbe9cYabZGH-bOl8ioFZ-1" target="Lbe9cYabZGH-bOl8ioFZ-9">
          <mxGeometry width="50" height="50" relative="1" as="geometry">
            <mxPoint x="180" y="303" as="sourcePoint" />
            <mxPoint x="350" y="105" as="targetPoint" />
          </mxGeometry>
        </mxCell>
        <mxCell id="Lbe9cYabZGH-bOl8ioFZ-16" value="" style="endArrow=classic;html=1;rounded=0;entryX=0;entryY=0.5;entryDx=0;entryDy=0;" edge="1" parent="1" source="Lbe9cYabZGH-bOl8ioFZ-1" target="Lbe9cYabZGH-bOl8ioFZ-5">
          <mxGeometry width="50" height="50" relative="1" as="geometry">
            <mxPoint x="190" y="313" as="sourcePoint" />
            <mxPoint x="360" y="115" as="targetPoint" />
          </mxGeometry>
        </mxCell>
        <mxCell id="Lbe9cYabZGH-bOl8ioFZ-17" value="" style="endArrow=classic;html=1;rounded=0;entryX=0;entryY=0.5;entryDx=0;entryDy=0;exitX=1;exitY=0.3333333333333333;exitDx=0;exitDy=0;exitPerimeter=0;" edge="1" parent="1" source="Lbe9cYabZGH-bOl8ioFZ-1" target="Lbe9cYabZGH-bOl8ioFZ-6">
          <mxGeometry width="50" height="50" relative="1" as="geometry">
            <mxPoint x="200" y="323" as="sourcePoint" />
            <mxPoint x="370" y="125" as="targetPoint" />
          </mxGeometry>
        </mxCell>
        <mxCell id="Lbe9cYabZGH-bOl8ioFZ-18" value="" style="endArrow=classic;html=1;rounded=0;entryX=0;entryY=0.5;entryDx=0;entryDy=0;exitX=1;exitY=0.3333333333333333;exitDx=0;exitDy=0;exitPerimeter=0;" edge="1" parent="1" source="Lbe9cYabZGH-bOl8ioFZ-1" target="Lbe9cYabZGH-bOl8ioFZ-7">
          <mxGeometry width="50" height="50" relative="1" as="geometry">
            <mxPoint x="210" y="333" as="sourcePoint" />
            <mxPoint x="380" y="135" as="targetPoint" />
          </mxGeometry>
        </mxCell>
        <mxCell id="Lbe9cYabZGH-bOl8ioFZ-19" value="" style="endArrow=classic;html=1;rounded=0;entryX=0;entryY=0.5;entryDx=0;entryDy=0;exitX=1;exitY=0.3333333333333333;exitDx=0;exitDy=0;exitPerimeter=0;" edge="1" parent="1" source="Lbe9cYabZGH-bOl8ioFZ-1" target="Lbe9cYabZGH-bOl8ioFZ-8">
          <mxGeometry width="50" height="50" relative="1" as="geometry">
            <mxPoint x="220" y="343" as="sourcePoint" />
            <mxPoint x="390" y="145" as="targetPoint" />
          </mxGeometry>
        </mxCell>
        <mxCell id="Lbe9cYabZGH-bOl8ioFZ-20" value="" style="endArrow=classic;html=1;rounded=0;exitX=1;exitY=0.3333333333333333;exitDx=0;exitDy=0;exitPerimeter=0;entryX=0;entryY=0.5;entryDx=0;entryDy=0;" edge="1" parent="1" source="Lbe9cYabZGH-bOl8ioFZ-1" target="Lbe9cYabZGH-bOl8ioFZ-10">
          <mxGeometry width="50" height="50" relative="1" as="geometry">
            <mxPoint x="230" y="353" as="sourcePoint" />
            <mxPoint x="400" y="155" as="targetPoint" />
          </mxGeometry>
        </mxCell>
        <mxCell id="Lbe9cYabZGH-bOl8ioFZ-21" value="" style="endArrow=classic;html=1;rounded=0;entryX=0;entryY=0.5;entryDx=0;entryDy=0;exitX=1;exitY=0.5;exitDx=0;exitDy=0;" edge="1" parent="1" source="Lbe9cYabZGH-bOl8ioFZ-10" target="Lbe9cYabZGH-bOl8ioFZ-11">
          <mxGeometry width="50" height="50" relative="1" as="geometry">
            <mxPoint x="400" y="430" as="sourcePoint" />
            <mxPoint x="450" y="380" as="targetPoint" />
          </mxGeometry>
        </mxCell>
        <mxCell id="Lbe9cYabZGH-bOl8ioFZ-22" value="" style="endArrow=classic;html=1;rounded=0;entryX=0;entryY=0.5;entryDx=0;entryDy=0;exitX=1;exitY=0.5;exitDx=0;exitDy=0;" edge="1" parent="1" source="Lbe9cYabZGH-bOl8ioFZ-10" target="Lbe9cYabZGH-bOl8ioFZ-12">
          <mxGeometry width="50" height="50" relative="1" as="geometry">
            <mxPoint x="240" y="363" as="sourcePoint" />
            <mxPoint x="410" y="165" as="targetPoint" />
          </mxGeometry>
        </mxCell>
        <mxCell id="Lbe9cYabZGH-bOl8ioFZ-23" value="" style="endArrow=classic;html=1;rounded=0;entryX=0;entryY=0.5;entryDx=0;entryDy=0;exitX=1;exitY=0.5;exitDx=0;exitDy=0;" edge="1" parent="1" source="Lbe9cYabZGH-bOl8ioFZ-10" target="Lbe9cYabZGH-bOl8ioFZ-13">
          <mxGeometry width="50" height="50" relative="1" as="geometry">
            <mxPoint x="250" y="373" as="sourcePoint" />
            <mxPoint x="420" y="175" as="targetPoint" />
          </mxGeometry>
        </mxCell>
        <mxCell id="Lbe9cYabZGH-bOl8ioFZ-24" value="view favorites" style="ellipse;whiteSpace=wrap;html=1;" vertex="1" parent="1">
          <mxGeometry x="530" y="180" width="80" height="30" as="geometry" />
        </mxCell>
        <mxCell id="Lbe9cYabZGH-bOl8ioFZ-25" value="login" style="ellipse;whiteSpace=wrap;html=1;" vertex="1" parent="1">
          <mxGeometry x="530" y="300" width="80" height="30" as="geometry" />
        </mxCell>
        <mxCell id="Lbe9cYabZGH-bOl8ioFZ-26" value="" style="endArrow=classic;html=1;rounded=0;entryX=0;entryY=0.5;entryDx=0;entryDy=0;exitX=1;exitY=0.5;exitDx=0;exitDy=0;" edge="1" parent="1" source="Lbe9cYabZGH-bOl8ioFZ-5" target="Lbe9cYabZGH-bOl8ioFZ-24">
          <mxGeometry width="50" height="50" relative="1" as="geometry">
            <mxPoint x="180" y="310" as="sourcePoint" />
            <mxPoint x="350" y="105" as="targetPoint" />
          </mxGeometry>
        </mxCell>
        <mxCell id="Lbe9cYabZGH-bOl8ioFZ-27" value="" style="endArrow=classic;html=1;rounded=0;entryX=0;entryY=0.5;entryDx=0;entryDy=0;exitX=1;exitY=0.5;exitDx=0;exitDy=0;" edge="1" parent="1" source="Lbe9cYabZGH-bOl8ioFZ-8" target="Lbe9cYabZGH-bOl8ioFZ-25">
          <mxGeometry width="50" height="50" relative="1" as="geometry">
            <mxPoint x="190" y="320" as="sourcePoint" />
            <mxPoint x="360" y="115" as="targetPoint" />
          </mxGeometry>
        </mxCell>
      </root>
    </mxGraphModel>
  </diagram>
</mxfile>
